<svg width="120" height="69" viewBox="0 0 120 69" fill="none" xmlns="http://www.w3.org/2000/svg">
<path fill-rule="evenodd" clip-rule="evenodd" d="M68.7768 12.0197C68.8967 12.1901 68.9998 12.3737 69.0839 12.5686C74.0438 13.9067 77.6952 18.3349 77.6952 23.5771C77.6952 29.8757 72.4243 35 65.9455 35C62.563 35 59.5104 33.6028 57.3646 31.3715H49.2193C47.4662 31.3715 46.04 29.9849 46.04 28.2806C46.04 27.3018 46.5109 26.4283 47.2436 25.8616C46.5109 25.2949 46.04 24.4215 46.04 23.4426C46.04 22.4638 46.5109 21.5904 47.2436 21.0237C46.5109 20.457 46.04 19.5835 46.04 18.6047C46.04 17.6259 46.5109 16.7525 47.2436 16.1857C46.5109 15.619 46.04 14.7456 46.04 13.7668C46.04 12.0625 47.4662 10.6759 49.2193 10.6759H51.0218C50.6699 10.1785 50.4634 9.57679 50.4634 8.92884C50.4634 8.28089 50.67 7.67917 51.0218 7.18181H45.487C43.734 7.18181 42.3077 5.7952 42.3077 4.0909C42.3077 2.38661 43.734 1 45.487 1H62.4205C64.1735 1 65.5998 2.38661 65.5998 4.0909C65.5998 4.73885 65.3932 5.34057 65.0413 5.83794H70.5762C72.3292 5.83794 73.7555 7.22454 73.7555 8.92884C73.7555 10.6331 72.3292 12.0197 70.5762 12.0197H68.7768ZM72.3732 8.92884C72.3732 7.96555 71.5671 7.18181 70.5762 7.18181H53.6427C52.6518 7.18181 51.8457 7.96555 51.8457 8.92884C51.8457 9.89213 52.6518 10.6759 53.6427 10.6759H66.1527H70.5762C71.5671 10.6759 72.3732 9.89213 72.3732 8.92884ZM43.69 4.0909C43.69 5.05419 44.4961 5.83794 45.487 5.83794H62.4205C63.4114 5.83794 64.2175 5.05419 64.2175 4.0909C64.2175 3.12762 63.4114 2.34387 62.4205 2.34387H45.487C44.4961 2.34387 43.69 3.12762 43.69 4.0909ZM66.1527 12.0197H49.2193C48.2285 12.0197 47.4223 12.8035 47.4223 13.7668C47.4223 14.7301 48.2285 15.5138 49.2193 15.5138H57.6309C59.7592 13.4395 62.7008 12.1542 65.9455 12.1542C66.2794 12.1542 66.6099 12.1686 66.9369 12.1953C66.6977 12.0826 66.4311 12.0197 66.1527 12.0197ZM56.4499 16.8577H49.2193C48.2284 16.8577 47.4223 17.6414 47.4223 18.6047C47.4223 19.5681 48.2284 20.3517 49.2193 20.3517H54.6734C55.0586 19.0814 55.6653 17.9027 56.4499 16.8577ZM54.356 21.6956H49.2193C48.2284 21.6956 47.4223 22.4793 47.4223 23.4426C47.4223 24.406 48.2284 25.1897 49.2193 25.1897H54.3134C54.2364 24.6627 54.1957 24.1245 54.1957 23.5771C54.1957 22.9363 54.2512 22.3079 54.356 21.6956ZM47.4223 28.2806C47.4223 29.2439 48.2284 30.0276 49.2193 30.0276H56.2539C55.5109 28.9758 54.9443 27.7977 54.5956 26.5335H49.2193C48.2284 26.5335 47.4223 27.3172 47.4223 28.2806ZM55.578 23.5771C55.578 29.1347 60.2289 33.6561 65.9455 33.6561C71.662 33.6561 76.3129 29.1347 76.3129 23.5771C76.3129 18.0195 71.662 13.4981 65.9455 13.4981C60.2289 13.4981 55.578 18.0195 55.578 23.5771ZM64.1824 21.2802C64.1824 22.0967 64.9718 22.7609 65.9421 22.7609C67.7945 22.7609 69.3016 24.1228 69.3016 25.7969C69.3016 27.2219 68.2094 28.42 66.742 28.7452V29.0811C66.742 29.5105 66.3838 29.8588 65.9421 29.8588C65.5005 29.8588 65.1423 29.5105 65.1423 29.0811V28.7452C63.6748 28.42 62.5827 27.2219 62.5827 25.7969C62.5827 25.3675 62.9409 25.0193 63.3826 25.0193C63.8243 25.0193 64.1824 25.3675 64.1824 25.7969C64.1824 26.6134 64.9718 27.2776 65.9421 27.2776C66.9125 27.2776 67.7018 26.6134 67.7018 25.7969C67.7018 24.9804 66.9125 24.3161 65.9421 24.3161C64.0897 24.3161 62.5827 22.9542 62.5827 21.2802C62.5827 19.8553 63.6748 18.6571 65.1423 18.3319V17.9275C65.1423 17.4981 65.5005 17.1499 65.9421 17.1499C66.3838 17.1499 66.742 17.4981 66.742 17.9275V18.3319C68.2094 18.6571 69.3016 19.8553 69.3016 21.2802C69.3016 21.7096 68.9434 22.0579 68.5017 22.0579C68.06 22.0579 67.7018 21.7096 67.7018 21.2802C67.7018 20.4637 66.9125 19.7995 65.9421 19.7995C64.9718 19.7995 64.1824 20.4637 64.1824 21.2802Z" fill="#fe2d52"/>

</svg>
